<svg xmlns="http://www.w3.org/2000/svg" enable-background="new 0 0 64 64" viewBox="0 0 64 64" id="calculator"><path fill="#fff" d="M56,5v53.8c0,2.3-1.8,4.1-4.1,4.1H12.3c-2.3,0-4.1-1.8-4.1-4.1V5c0-2.3,1.8-4.1,4.1-4.1h39.7C54.2,0.9,56,2.7,56,5z"></path><path fill="#33226e" d="M51.8,64H12.2c-2.8,0-5.1-2.3-5.1-5.1V5.1C7.1,2.3,9.4,0,12.2,0h39.7c2.8,0,5.1,2.3,5.1,5.1v53.8C56.9,61.7,54.6,64,51.8,64z M12.2,2c-1.7,0-3.1,1.4-3.1,3.1v53.8c0,1.7,1.4,3.1,3.1,3.1h39.7c1.7,0,3.1-1.4,3.1-3.1V5.1c0-1.7-1.4-3.1-3.1-3.1C51.8,2,12.2,2,12.2,2z"></path><path fill="#4de2c9" d="M51.4,6.9v10.9c0,0.7-0.6,1.3-1.3,1.3H13.9c-0.7,0-1.3-0.6-1.3-1.3V6.9c0-0.7,0.6-1.3,1.3-1.3h36.2C50.8,5.6,51.4,6.2,51.4,6.9z"></path><path fill="#33226e" d="M50.1,20H13.9c-1.3,0-2.3-1-2.3-2.3V6.9c0-1.3,1-2.3,2.3-2.3h36.2c1.3,0,2.3,1,2.3,2.3v10.9C52.4,19,51.3,20,50.1,20z M13.9,6.6c-0.1,0-0.3,0.1-0.3,0.3v10.9c0,0.1,0.1,0.3,0.3,0.3h36.2c0.1,0,0.3-0.1,0.3-0.3V6.9c0-0.1-0.1-0.3-0.3-0.3H13.9z"></path><g><path fill="#fff" d="M36.9 50.9v6.4c0 .6-.5 1.1-1.1 1.1h-7.7c-.6 0-1.1-.5-1.1-1.1v-6.4c0-.6.5-1.1 1.1-1.1h7.7C36.5 49.9 36.9 50.3 36.9 50.9zM22.5 37.8v6.4c0 .6-.5 1.1-1.1 1.1h-7.7c-.6 0-1.1-.5-1.1-1.1v-6.4c0-.6.5-1.1 1.1-1.1h7.7C22 36.7 22.5 37.2 22.5 37.8zM36.9 24.7v6.4c0 .6-.5 1.1-1.1 1.1h-7.7c-.6 0-1.1-.5-1.1-1.1v-6.4c0-.6.5-1.1 1.1-1.1h7.7C36.5 23.6 36.9 24.1 36.9 24.7z"></path><path fill="#ffcd7e" d="M51.4,24.7v6.4c0,0.6-0.5,1.1-1.1,1.1h-7.7c-0.6,0-1.1-0.5-1.1-1.1v-6.4c0-0.6,0.5-1.1,1.1-1.1h7.7C50.9,23.6,51.4,24.1,51.4,24.7z"></path><path fill="#fff" d="M22.5 24.7v6.4c0 .6-.5 1.1-1.1 1.1h-7.7c-.6 0-1.1-.5-1.1-1.1v-6.4c0-.6.5-1.1 1.1-1.1h7.7C22 23.6 22.5 24.1 22.5 24.7zM22.5 50.9v6.4c0 .6-.5 1.1-1.1 1.1h-7.7c-.6 0-1.1-.5-1.1-1.1v-6.4c0-.6.5-1.1 1.1-1.1h7.7C22 49.9 22.5 50.3 22.5 50.9zM36.9 37.8v6.4c0 .6-.5 1.1-1.1 1.1h-7.7c-.6 0-1.1-.5-1.1-1.1v-6.4c0-.6.5-1.1 1.1-1.1h7.7C36.5 36.7 36.9 37.2 36.9 37.8z"></path><path fill="#ff787d" d="M51.4,37.8v19.5c0,0.6-0.5,1.1-1.1,1.1h-7.7c-0.6,0-1.1-0.5-1.1-1.1V37.8c0-0.6,0.5-1.1,1.1-1.1h7.7C50.9,36.7,51.4,37.2,51.4,37.8z"></path><path fill="#33226e" d="M21.4 22.6h-7.7c-1.1 0-2.1.9-2.1 2.1v6.4c0 1.1.9 2.1 2.1 2.1h7.7c1.1 0 2.1-.9 2.1-2.1v-6.4C23.5 23.5 22.6 22.6 21.4 22.6zM21.4 31.2h-7.7l-.1-6.5 7.8-.1V31.2L21.4 31.2zM35.9 48.9h-7.7c-1.1 0-2.1.9-2.1 2.1v6.4c0 1.1.9 2.1 2.1 2.1h7.7c1.1 0 2.1-.9 2.1-2.1v-6.4C37.9 49.8 37 48.9 35.9 48.9zM35.9 57.4h-7.7l-.1-6.5 7.8-.1V57.4L35.9 57.4zM21.4 48.9h-7.7c-1.1 0-2.1.9-2.1 2.1v6.4c0 1.1.9 2.1 2.1 2.1h7.7c1.1 0 2.1-.9 2.1-2.1v-6.4C23.5 49.8 22.6 48.9 21.4 48.9zM21.4 57.4h-7.7l-.1-6.5 7.8-.1V57.4L21.4 57.4zM35.9 35.7h-7.7c-1.1 0-2.1.9-2.1 2.1v6.4c0 1.1.9 2.1 2.1 2.1h7.7c1.1 0 2.1-.9 2.1-2.1v-6.4C37.9 36.7 37 35.7 35.9 35.7zM35.9 44.3h-7.7l-.1-6.5 7.8-.1V44.3L35.9 44.3zM21.4 35.7h-7.7c-1.1 0-2.1.9-2.1 2.1v6.4c0 1.1.9 2.1 2.1 2.1h7.7c1.1 0 2.1-.9 2.1-2.1v-6.4C23.5 36.7 22.6 35.7 21.4 35.7zM21.4 44.3h-7.7l-.1-6.5 7.8-.1V44.3L21.4 44.3zM50.3 22.6h-7.7c-1.1 0-2.1.9-2.1 2.1v6.4c0 1.1.9 2.1 2.1 2.1h7.7c1.1 0 2.1-.9 2.1-2.1v-6.4C52.4 23.5 51.4 22.6 50.3 22.6zM50.3 31.2h-7.7l-.1-6.5 7.8-.1V31.2L50.3 31.2zM35.9 22.6h-7.7c-1.1 0-2.1.9-2.1 2.1v6.4c0 1.1.9 2.1 2.1 2.1h7.7c1.1 0 2.1-.9 2.1-2.1v-6.4C37.9 23.5 37 22.6 35.9 22.6zM35.9 31.2h-7.7l-.1-6.5 7.8-.1V31.2L35.9 31.2zM50.3 35.7h-7.7c-1.1 0-2.1.9-2.1 2.1v19.5c0 1.1.9 2.1 2.1 2.1h7.7c1.1 0 2.1-.9 2.1-2.1V37.8C52.4 36.7 51.4 35.7 50.3 35.7zM50.3 57.4h-7.7l-.1-19.6 7.8-.1V57.4L50.3 57.4z"></path></g></svg>